<svg xmlns="http://www.w3.org/2000/svg" viewBox="0 0 186 27">
<g>
	<polygon fill="#FFFFFF" points="18,17.8 18,17.8 9,8.9 18,0 9,0 0,8.9 4.5,13.4 9,17.8 13.5,22.2 	"/>
	<polygon fill="#FFFFFF" points="25.1,13.4 20.6,8.9 16.1,4.5 11.7,8.9 20.6,17.8 20.6,17.8 20.6,17.8 11.6,26.7 20.6,26.7 
		25.1,22.3 29.6,17.8 	"/>
</g>
<g>
	<path fill="#FFFFFF" d="M40.8,8.9c-1.3,0-2.4,0.4-3.2,1.3c-0.8,0.9-1.2,2.1-1.2,3.7c0,1.6,0.4,2.8,1.1,3.7c0.8,0.9,1.8,1.3,3.2,1.3
		c0.9,0,1.8-0.2,2.9-0.5v1.3c-0.9,0.3-1.9,0.5-3.1,0.5c-1.8,0-3.2-0.5-4.2-1.6c-1-1.1-1.5-2.7-1.5-4.7c0-1.3,0.2-2.4,0.7-3.3
		s1.2-1.7,2-2.2c0.9-0.5,1.9-0.8,3.2-0.8c1.3,0,2.4,0.2,3.4,0.7l-0.6,1.2C42.6,9.2,41.7,8.9,40.8,8.9z"/>
	<path fill="#FFFFFF" d="M53.3,16.8c0,1.1-0.4,1.9-1.2,2.5c-0.8,0.6-1.8,0.9-3.2,0.9c-1.5,0-2.6-0.2-3.4-0.6v-1.4
		c0.5,0.2,1.1,0.4,1.6,0.5S48.4,19,49,19c1,0,1.7-0.2,2.1-0.5c0.5-0.4,0.7-0.9,0.7-1.5c0-0.4-0.1-0.8-0.3-1
		c-0.2-0.3-0.5-0.5-0.9-0.8c-0.4-0.2-1-0.5-1.8-0.8c-1.1-0.4-2-0.9-2.4-1.5c-0.5-0.6-0.7-1.3-0.7-2.2c0-0.9,0.4-1.7,1.1-2.3
		c0.7-0.6,1.7-0.8,2.8-0.8c1.2,0,2.3,0.2,3.4,0.7l-0.4,1.2c-1-0.4-2-0.6-3-0.6c-0.8,0-1.3,0.2-1.8,0.5c-0.4,0.3-0.6,0.8-0.6,1.4
		c0,0.4,0.1,0.8,0.2,1c0.2,0.3,0.4,0.5,0.8,0.7c0.4,0.2,0.9,0.5,1.7,0.8c1.3,0.5,2.2,1,2.7,1.5C53,15.3,53.3,16,53.3,16.8z"/>
	<path fill="#FFFFFF" d="M62.7,16.8c0,1.1-0.4,1.9-1.2,2.5c-0.8,0.6-1.8,0.9-3.2,0.9c-1.5,0-2.6-0.2-3.4-0.6v-1.4
		c0.5,0.2,1.1,0.4,1.6,0.5s1.2,0.2,1.8,0.2c1,0,1.7-0.2,2.1-0.5c0.5-0.4,0.7-0.9,0.7-1.5c0-0.4-0.1-0.8-0.3-1
		c-0.2-0.3-0.5-0.5-0.9-0.8c-0.4-0.2-1-0.5-1.8-0.8c-1.1-0.4-2-0.9-2.4-1.5c-0.5-0.6-0.7-1.3-0.7-2.2c0-0.9,0.4-1.7,1.1-2.3
		c0.7-0.6,1.7-0.8,2.8-0.8c1.2,0,2.3,0.2,3.4,0.7L62,9.6c-1-0.4-2-0.6-3-0.6c-0.8,0-1.3,0.2-1.8,0.5c-0.4,0.3-0.6,0.8-0.6,1.4
		c0,0.4,0.1,0.8,0.2,1c0.2,0.3,0.4,0.5,0.8,0.7c0.4,0.2,0.9,0.5,1.7,0.8c1.3,0.5,2.2,1,2.7,1.5C62.5,15.3,62.7,16,62.7,16.8z"/>
	<path fill="#FFFFFF" d="M75.3,13.7c0,2-0.6,3.6-1.7,4.7c-1.1,1.1-2.7,1.7-4.8,1.7h-4V7.8h4.2c2,0,3.5,0.5,4.6,1.5
		S75.3,11.8,75.3,13.7z M71.8,13.8c0-1.1-0.2-2-0.7-2.5s-1.1-0.8-2-0.8h-1v6.9h0.7c1,0,1.7-0.3,2.2-0.9C71.6,15.9,71.8,15,71.8,13.8
		z"/>
	<path fill="#FFFFFF" d="M81.9,20.3c-1.6,0-2.8-0.4-3.7-1.3c-0.9-0.8-1.3-2-1.3-3.6c0-1.6,0.4-2.8,1.2-3.7c0.8-0.9,2-1.3,3.5-1.3
		c1.4,0,2.5,0.4,3.3,1.1s1.2,1.8,1.2,3.2v1.5h-5.9c0,0.5,0.2,0.9,0.6,1.3c0.4,0.3,0.9,0.5,1.5,0.5c0.6,0,1.1-0.1,1.6-0.2
		c0.5-0.1,1-0.3,1.6-0.6v2.4c-0.5,0.3-1,0.4-1.6,0.5S82.6,20.3,81.9,20.3z M81.7,12.7c-0.4,0-0.7,0.1-1,0.4
		c-0.3,0.2-0.4,0.6-0.5,1.1h2.8c0-0.5-0.1-0.8-0.4-1.1C82.4,12.8,82.1,12.7,81.7,12.7z"/>
	<path fill="#FFFFFF" d="M95.2,17.2c0,1-0.3,1.8-1,2.3c-0.7,0.5-1.7,0.8-3,0.8c-0.7,0-1.3,0-1.8-0.1c-0.5-0.1-1.1-0.2-1.6-0.4v-2.6
		c0.5,0.2,1.1,0.4,1.7,0.6c0.6,0.1,1.1,0.2,1.6,0.2c0.7,0,1.1-0.2,1.1-0.5c0-0.2-0.1-0.3-0.3-0.4c-0.2-0.1-0.8-0.4-1.7-0.8
		c-0.9-0.4-1.5-0.8-1.8-1.2c-0.3-0.5-0.5-1-0.5-1.7c0-0.9,0.3-1.6,1-2.1c0.7-0.5,1.6-0.7,2.9-0.7c0.6,0,1.2,0.1,1.8,0.2
		c0.6,0.1,1.1,0.3,1.7,0.6l-0.9,2.1c-0.4-0.2-0.9-0.4-1.4-0.5c-0.5-0.1-0.9-0.2-1.2-0.2c-0.5,0-0.8,0.1-0.8,0.4
		c0,0.2,0.1,0.3,0.3,0.4c0.2,0.1,0.7,0.3,1.6,0.7c0.7,0.3,1.2,0.5,1.5,0.8c0.3,0.3,0.6,0.6,0.7,0.9C95.2,16.2,95.2,16.7,95.2,17.2z"
		/>
	<path fill="#FFFFFF" d="M97,8.2c0-0.5,0.1-0.9,0.4-1.1c0.3-0.2,0.7-0.4,1.3-0.4c0.6,0,1.1,0.1,1.3,0.4c0.3,0.2,0.4,0.6,0.4,1.1
		c0,1-0.6,1.4-1.8,1.4C97.6,9.7,97,9.2,97,8.2z M100.4,20.1h-3.3v-9.5h3.3V20.1z"/>
	<path fill="#FFFFFF" d="M111.6,10.6v1.6l-1.3,0.5c0.2,0.3,0.3,0.7,0.3,1.1c0,1-0.4,1.8-1.1,2.4c-0.7,0.6-1.8,0.8-3.2,0.8
		c-0.4,0-0.6,0-0.8-0.1c-0.1,0.1-0.1,0.3-0.1,0.4c0,0.2,0.1,0.3,0.4,0.4c0.3,0.1,0.6,0.1,1,0.1h1.6c2.1,0,3.2,0.9,3.2,2.7
		c0,1.2-0.5,2.1-1.5,2.7c-1,0.6-2.4,1-4.2,1c-1.3,0-2.4-0.2-3.1-0.7c-0.7-0.4-1.1-1.1-1.1-1.9c0-1.1,0.7-1.9,2.1-2.2
		c-0.3-0.1-0.5-0.3-0.8-0.6c-0.2-0.3-0.3-0.5-0.3-0.8c0-0.3,0.1-0.6,0.2-0.8c0.2-0.2,0.5-0.5,1-0.8c-0.5-0.2-0.9-0.6-1.2-1
		c-0.3-0.5-0.4-1-0.4-1.7c0-1,0.4-1.8,1.1-2.4c0.7-0.6,1.7-0.9,3-0.9c0.2,0,0.5,0,0.9,0.1s0.7,0.1,0.9,0.1H111.6z M104.5,21.3
		c0,0.3,0.1,0.5,0.4,0.7c0.3,0.2,0.7,0.2,1.2,0.2c0.8,0,1.4-0.1,1.9-0.3c0.5-0.2,0.7-0.5,0.7-0.8c0-0.3-0.1-0.4-0.4-0.5
		c-0.3-0.1-0.7-0.2-1.3-0.2h-1.3c-0.4,0-0.6,0.1-0.9,0.2C104.6,20.8,104.5,21,104.5,21.3z M105.5,13.7c0,1,0.3,1.5,1,1.5
		c0.3,0,0.6-0.1,0.7-0.4c0.2-0.2,0.3-0.6,0.3-1.1c0-1-0.3-1.5-1-1.5C105.8,12.2,105.5,12.7,105.5,13.7z"/>
	<path fill="#FFFFFF" d="M119.1,20.1v-5.2c0-0.6-0.1-1.1-0.3-1.4c-0.2-0.3-0.5-0.5-0.9-0.5c-0.6,0-1,0.2-1.2,0.7
		c-0.2,0.4-0.4,1.2-0.4,2.3v4.2h-3.3v-9.5h2.5l0.4,1.2h0.2c0.3-0.4,0.7-0.8,1.2-1c0.5-0.2,1.1-0.3,1.7-0.3c1.1,0,1.9,0.3,2.5,0.9
		c0.6,0.6,0.9,1.5,0.9,2.6v6.2H119.1z"/>
	<path fill="#FFFFFF" d="M132.8,20.1l-1.5-3.9h-4.9l-1.5,3.9h-1.4l4.9-12.3h1.2l4.8,12.3H132.8z M130.9,14.9l-1.4-3.8
		c-0.2-0.5-0.4-1.1-0.6-1.8c-0.1,0.5-0.3,1.1-0.5,1.8l-1.4,3.8H130.9z"/>
	<path fill="#FFFFFF" d="M143.3,20.1l-1.7-5.4c-0.1-0.3-0.3-1.1-0.6-2.2H141c-0.2,1-0.4,1.7-0.6,2.3l-1.7,5.4H137l-2.5-9.2h1.5
		c0.6,2.3,1,4.1,1.4,5.3c0.3,1.2,0.5,2,0.5,2.4h0.1c0.1-0.3,0.2-0.7,0.3-1.2c0.1-0.5,0.3-0.9,0.4-1.2l1.7-5.3h1.5l1.6,5.3
		c0.3,1,0.5,1.8,0.6,2.4h0.1c0-0.2,0.1-0.5,0.2-0.9c0.1-0.4,0.7-2.7,1.7-6.8h1.4l-2.5,9.2H143.3z"/>
	<path fill="#FFFFFF" d="M154.8,20.1l-0.3-1.3h-0.1c-0.5,0.6-0.9,1-1.4,1.2c-0.5,0.2-1,0.3-1.7,0.3c-0.9,0-1.6-0.2-2.1-0.7
		c-0.5-0.5-0.8-1.1-0.8-2c0-1.9,1.5-2.8,4.5-2.9l1.6-0.1V14c0-0.7-0.2-1.3-0.5-1.6c-0.3-0.3-0.8-0.5-1.5-0.5c-0.8,0-1.6,0.2-2.6,0.7
		l-0.4-1.1c0.5-0.2,0.9-0.4,1.5-0.6c0.5-0.1,1.1-0.2,1.6-0.2c1.1,0,1.9,0.2,2.4,0.7c0.5,0.5,0.8,1.3,0.8,2.3v6.3H154.8z M151.7,19.1
		c0.9,0,1.5-0.2,2-0.7c0.5-0.5,0.7-1.1,0.7-2v-0.8l-1.4,0.1c-1.1,0-1.9,0.2-2.4,0.5c-0.5,0.3-0.7,0.8-0.7,1.4c0,0.5,0.2,0.9,0.5,1.1
		C150.7,19,151.1,19.1,151.7,19.1z"/>
	<path fill="#FFFFFF" d="M162.9,10.7c0.4,0,0.8,0,1.1,0.1l-0.2,1.3c-0.4-0.1-0.7-0.1-1-0.1c-0.7,0-1.4,0.3-1.9,0.9
		c-0.5,0.6-0.8,1.4-0.8,2.3v4.9h-1.4v-9.2h1.1l0.2,1.7h0.1c0.3-0.6,0.8-1.1,1.2-1.4C161.8,10.9,162.3,10.7,162.9,10.7z"/>
	<path fill="#FFFFFF" d="M172,18.9L172,18.9c-0.7,0.9-1.7,1.4-3,1.4c-1.2,0-2.1-0.4-2.8-1.2c-0.7-0.8-1-2-1-3.5c0-1.5,0.3-2.7,1-3.5
		c0.7-0.8,1.6-1.3,2.8-1.3c1.2,0,2.2,0.5,2.9,1.4h0.1l-0.1-0.7l0-0.6V7h1.4v13.1h-1.1L172,18.9z M169.2,19.1c1,0,1.6-0.3,2.1-0.8
		c0.4-0.5,0.6-1.4,0.6-2.5v-0.3c0-1.3-0.2-2.2-0.7-2.8c-0.4-0.6-1.1-0.8-2.1-0.8c-0.8,0-1.4,0.3-1.9,1c-0.4,0.6-0.7,1.5-0.7,2.7
		c0,1.2,0.2,2.1,0.6,2.7C167.7,18.8,168.4,19.1,169.2,19.1z"/>
	<path fill="#FFFFFF" d="M182.2,17.6c0,0.9-0.3,1.5-1,2s-1.5,0.7-2.7,0.7c-1.2,0-2.2-0.2-2.9-0.6v-1.3c0.4,0.2,0.9,0.4,1.4,0.5
		c0.5,0.1,1,0.2,1.5,0.2c0.7,0,1.3-0.1,1.7-0.3c0.4-0.2,0.6-0.6,0.6-1.1c0-0.4-0.2-0.7-0.5-0.9c-0.3-0.3-0.9-0.6-1.8-0.9
		c-0.9-0.3-1.5-0.6-1.8-0.8c-0.4-0.2-0.6-0.5-0.8-0.8c-0.2-0.3-0.3-0.7-0.3-1.1c0-0.7,0.3-1.3,0.9-1.8s1.4-0.7,2.5-0.7
		c1,0,2,0.2,2.9,0.6l-0.5,1.1c-0.9-0.4-1.8-0.6-2.5-0.6c-0.7,0-1.2,0.1-1.5,0.3c-0.3,0.2-0.5,0.5-0.5,0.9c0,0.2,0.1,0.5,0.2,0.6
		c0.1,0.2,0.3,0.3,0.6,0.5c0.3,0.2,0.8,0.4,1.6,0.7c1.1,0.4,1.8,0.8,2.2,1.2C182,16.5,182.2,17,182.2,17.6z"/>
</g>
</svg>
