<?xml version="1.0" encoding="utf-8"?>
<!DOCTYPE svg PUBLIC "-//W3C//DTD SVG 1.1//EN" "http://www.w3.org/Graphics/SVG/1.1/DTD/svg11.dtd"> 
<svg version="1.1" id="Layer_1" xmlns="http://www.w3.org/2000/svg" xmlns:xlink="http://www.w3.org/1999/xlink" x="0px" y="0px"
	 width="604.5px" height="75.667px" viewBox="0 0 604.5 75.667" enable-background="new 0 0 604.5 75.667" xml:space="preserve">
<path fill="#FFFFFF" d="M35.286,0c-5.378,0-10.3,0.976-14.63,2.889c-4.329,1.913-8.075,4.586-11.132,7.947
	c-3.049,3.361-5.426,7.371-7.058,11.925C0.833,27.306,0,32.276,0,37.542c0,5.01,0.784,9.702,2.32,13.942
	c1.537,4.25,3.762,7.973,6.611,11.061c2.841,3.09,6.33,5.539,10.364,7.283c4.025,1.736,8.563,2.617,13.493,2.617
	c6.875,0,13.085-1.281,18.463-3.803l0.352-0.168v-7.676l-0.912,0.506c-4.914,2.721-10.692,4.098-17.183,4.098
	c-4.209,0-7.955-0.752-11.116-2.24c-3.169-1.498-5.858-3.537-7.979-6.082c-2.129-2.555-3.769-5.578-4.858-8.988
	c-1.096-3.434-1.648-7.139-1.648-11.021c0-4.33,0.616-8.379,1.84-12.028c1.217-3.634,3.001-6.827,5.306-9.492
	c2.297-2.657,5.17-4.754,8.524-6.25c3.361-1.497,7.266-2.249,11.612-2.249c5.482,0,10.7,1.224,15.526,3.633l0.888,0.44v-8.24
	L51.212,2.73C46.554,0.92,41.192,0,35.286,0"/>
<path fill="#FFFFFF" d="M100.127,42.201c-1.449-1.617-3.289-3.186-5.466-4.667c-2.153-1.456-4.706-2.977-7.595-4.521
	c-2.729-1.457-5.074-2.77-6.963-3.897c-1.848-1.104-3.361-2.233-4.489-3.345c-1.105-1.089-1.913-2.249-2.409-3.466
	c-0.496-1.216-0.745-2.697-0.745-4.401c0-1.777,0.369-3.346,1.097-4.674c0.736-1.337,1.761-2.473,3.033-3.369
	c1.297-0.921,2.833-1.625,4.562-2.097c1.752-0.48,3.641-0.72,5.626-0.72c5.338,0,10.052,1.152,14.005,3.425l0.921,0.528V2.465
	l-0.385-0.16C97.614,0.776,92.964,0,87.498,0c-3.121,0-6.098,0.432-8.851,1.28c-2.761,0.849-5.21,2.081-7.275,3.674
	c-2.073,1.6-3.745,3.561-4.97,5.842c-1.224,2.289-1.849,4.906-1.849,7.779c0,2.273,0.329,4.33,0.977,6.114
	c0.648,1.793,1.672,3.49,3.049,5.026c1.353,1.521,3.121,3.024,5.25,4.474c2.105,1.424,4.666,2.961,7.611,4.563
	c2.633,1.465,4.954,2.793,6.899,3.953c1.904,1.146,3.497,2.305,4.745,3.449c1.209,1.129,2.113,2.346,2.689,3.617
	c0.569,1.281,0.857,2.803,0.857,4.531c0,3.607-1.193,6.297-3.65,8.201c-2.473,1.92-6.29,2.896-11.34,2.896
	c-1.305,0-2.697-0.118-4.13-0.353c-1.432-0.231-2.881-0.586-4.305-1.032c-1.417-0.457-2.825-1.022-4.186-1.695
	c-1.352-0.666-2.601-1.435-3.721-2.267l-0.985-0.745v9.062l0.289,0.188c0.904,0.563,2.088,1.096,3.521,1.573
	c1.4,0.468,2.905,0.884,4.458,1.22c1.544,0.336,3.097,0.604,4.617,0.772c1.521,0.188,2.857,0.271,3.962,0.271
	c3.369,0,6.506-0.397,9.331-1.179c2.849-0.782,5.338-1.969,7.411-3.506c2.089-1.563,3.73-3.545,4.89-5.914
	c1.16-2.358,1.745-5.131,1.745-8.219c0-2.242-0.368-4.313-1.105-6.154C102.704,45.585,101.592,43.833,100.127,42.201"/>
<path fill="#FFFFFF" d="M155.925,47.427c-0.728-1.842-1.841-3.594-3.305-5.227c-1.449-1.617-3.289-3.188-5.466-4.667
	c-2.153-1.455-4.706-2.977-7.595-4.521c-2.729-1.457-5.074-2.77-6.963-3.897c-1.849-1.104-3.361-2.233-4.49-3.345
	c-1.104-1.089-1.912-2.249-2.408-3.466c-0.497-1.216-0.745-2.697-0.745-4.401c0-1.777,0.368-3.345,1.097-4.674
	c0.736-1.337,1.76-2.473,3.033-3.369c1.296-0.921,2.833-1.625,4.562-2.097c1.752-0.48,3.641-0.72,5.626-0.72
	c5.338,0,10.051,1.152,14.005,3.425l0.92,0.528V2.465l-0.384-0.16C150.107,0.776,145.457,0,139.991,0
	c-3.121,0-6.098,0.432-8.851,1.28c-2.761,0.849-5.21,2.081-7.275,3.674c-2.073,1.6-3.746,3.561-4.97,5.842
	c-1.225,2.289-1.849,4.906-1.849,7.779c0,2.273,0.328,4.33,0.977,6.114c0.648,1.793,1.672,3.49,3.049,5.026
	c1.352,1.521,3.121,3.024,5.25,4.474c2.105,1.426,4.666,2.961,7.611,4.563c2.633,1.465,4.954,2.793,6.898,3.953
	c1.905,1.146,3.498,2.305,4.746,3.451c1.209,1.127,2.113,2.344,2.689,3.615c0.568,1.281,0.856,2.803,0.856,4.531
	c0,3.607-1.192,6.297-3.649,8.201c-2.473,1.92-6.29,2.896-11.34,2.896c-1.305,0-2.697-0.118-4.13-0.353
	c-1.432-0.231-2.881-0.586-4.305-1.032c-1.417-0.457-2.826-1.022-4.186-1.695c-1.353-0.666-2.601-1.435-3.721-2.267l-0.985-0.743
	v9.06l0.288,0.188c0.905,0.563,2.089,1.096,3.522,1.573c1.4,0.468,2.905,0.884,4.457,1.22c1.545,0.336,3.097,0.604,4.618,0.772
	c1.521,0.188,2.857,0.271,3.962,0.271c3.369,0,6.506-0.397,9.331-1.179c2.849-0.782,5.338-1.969,7.411-3.506
	c2.089-1.563,3.729-3.545,4.89-5.914c1.16-2.358,1.744-5.129,1.744-8.219C157.029,51.339,156.661,49.267,155.925,47.427"/>
<rect x="292.754" y="1.176" fill="#FFFFFF" width="7.619" height="70.091"/>
<path fill="#FFFFFF" d="M449.942,58.531C449.88,58.443,405.55,1.177,405.55,1.177h-7.992v70.091h7.617
	c0,0-0.021-56.789-0.064-57.822c0.021,0.032,44.896,57.822,44.896,57.822h7.563V1.176h-7.666
	C449.909,1.176,449.911,58.083,449.942,58.531"/>
<path fill="#FFFFFF" d="M371.37,58.531c-0.058-0.088-44.386-57.354-44.386-57.354h-7.993v70.091h7.616
	c0,0-0.022-56.789-0.069-57.822c0.022,0.032,44.901,57.822,44.901,57.822h7.563V1.176h-7.666
	C371.336,1.176,371.338,58.083,371.37,58.531"/>
<polygon fill="#FFFFFF" points="483.762,39.289 513.079,39.289 513.079,32.292 483.762,32.292 483.762,8.267 519.096,8.267 
	519.096,1.177 476.143,1.177 476.143,71.267 520.631,71.267 520.631,64.224 483.762,64.224 "/>
<path fill="#FFFFFF" d="M574.149,49.035c-0.771-1.438-1.521-2.744-2.229-3.873c-0.711-1.135-1.449-2.16-2.186-3.041
	c-0.744-0.896-1.527-1.664-2.32-2.297c-0.438-0.352-0.912-0.664-1.408-0.943c1.945-0.545,3.729-1.275,5.338-2.188
	c1.992-1.137,3.705-2.537,5.107-4.17c1.406-1.633,2.504-3.529,3.256-5.642c0.76-2.105,1.146-4.442,1.146-6.931
	c0-3.089-0.602-5.85-1.77-8.195c-1.178-2.345-2.754-4.321-4.707-5.874c-1.938-1.545-4.178-2.729-6.658-3.513
	c-2.465-0.785-5.059-1.185-7.691-1.185h-24.345v70.09h7.618V41.304h10.861c1.377,0,2.633,0.16,3.744,0.48
	c1.09,0.313,2.129,0.84,3.082,1.569c0.977,0.746,1.936,1.769,2.854,3.021c0.938,1.289,1.92,2.906,2.936,4.826l10.368,19.731
	l0.181,0.325h8.891L574.149,49.035z M543.305,8.268h15.23c4.688,0,8.307,1.104,10.756,3.273c2.426,2.161,3.656,5.178,3.656,8.98
	c0,2.112-0.359,4.033-1.08,5.714c-0.711,1.672-1.729,3.121-3.021,4.297c-1.289,1.194-2.873,2.114-4.707,2.761
	c-1.848,0.642-3.914,0.97-6.137,0.97H543.3L543.305,8.268L543.305,8.268z"/>
<polygon fill="#FFFFFF" points="168.062,1.177 215.156,71.255 219.245,65.255 176.233,1.177 "/>
<polygon fill="#FFFFFF" points="272.187,1.177 233.303,59.21 205.189,16.889 196.918,16.889 233.396,71.263 280.374,1.177 "/>
<polygon fill="#FFFFFF" points="262.07,1.177 253.895,1.177 229.216,38.114 233.273,44.169 "/>
</svg> 