<?xml version="1.0" encoding="utf-8"?>
<!-- Generator: Adobe Illustrator 17.0.0, SVG Export Plug-In . SVG Version: 6.00 Build 0)  -->
<!DOCTYPE svg PUBLIC "-//W3C//DTD SVG 1.1//EN" "http://www.w3.org/Graphics/SVG/1.1/DTD/svg11.dtd">
<svg version="1.1" id="Layer_1" xmlns="http://www.w3.org/2000/svg" xmlns:xlink="http://www.w3.org/1999/xlink" x="0px" y="0px"
	 width="338px" height="101px" viewBox="0 0 338 101" enable-background="new 0 0 338 101" xml:space="preserve">
<g>
	<path fill="#FFFFFF" d="M288.167,15.391c1.266,0,2.456,0.321,3.495,0.885c2.286,1.242,3.838,3.664,3.838,6.448v0v20.833h20.167
		c4.05,0,7.333,3.283,7.333,7.333c0,4.05-3.283,7.334-7.333,7.334H295.5v19.77c0,4.05-3.283,7.333-7.333,7.333
		c-0.852,0-56.167-0.022-56.167-0.022c-4.051,0-7.334-3.283-7.334-7.334V50.558h0.017c0.176-3.894,3.379-7,7.317-7h48.834v-13.5
		h-56.365l-26.751,49.638c-0.427,2.197-1.842,4.174-4.015,5.218c-1.023,0.492-2.104,0.725-3.168,0.725
		c-2.543,0-4.991-1.333-6.335-3.639c-0.271-0.413-0.501-0.85-0.683-1.304l-21.126-41.468l-21.373,40.543
		c-0.925,2.172-2.277,4.097-4.45,5.142c-1.023,0.492-2.104,0.725-3.167,0.725c-2.544,0-4.991-1.332-6.336-3.638
		c-0.272-0.414-0.502-0.852-0.685-1.308l-25.796-50.636H57.5v13.5h34.834c4.05,0,7.333,3.283,7.333,7.333
		c0,4.05-3.283,7.334-7.333,7.334H57.5v20.167c0,4.05-3.283,7.333-7.333,7.333c-4.05,0-7.334-3.283-7.334-7.333V58.224H22.667
		c-4.05,0-7.334-3.283-7.334-7.334c0-4.05,3.283-7.333,7.334-7.333h20.166V22.725v0c0-2.784,1.552-5.206,3.838-6.448
		c1.039-0.564,2.23-0.885,3.496-0.885h54.667c1.189,0,2.309,0.289,3.302,0.792c1.534,0.682,2.844,1.887,3.628,3.518l21.621,42.442
		l21.69-40.535c1.091-2.219,1.695-4.213,4.038-5.34c1.023-0.492,2.103-0.725,3.167-0.725c1.814,0,3.58,0.677,4.932,1.901
		c1.336,1.045,1.954,1.752,2.871,3.528l20.436,41.17l22.937-42.557c0.597-1.048,1.416-1.889,2.36-2.506
		c1.27-1.055,2.902-1.69,4.683-1.69H288.167 M239,70.639h41.834V58.224H239V70.639 M288.167,0.391H220.5
		c-4.914,0-9.709,1.634-13.598,4.617c-2.647,1.881-4.878,4.342-6.481,7.16l-0.086,0.15l-0.082,0.152l-9.358,17.363
		c0,0-10.864-21.269-14.017-23.862c-4.061-3.503-9.222-5.426-14.597-5.426c-3.322,0-6.666,0.763-9.669,2.207
		c-5.821,2.799-9.041,7.929-11.787,13.971l-7.065,13.109l-8.575-16.832c-2.25-4.561-6.004-8.226-10.617-10.37
		c-3.026-1.466-6.383-2.239-9.734-2.239H50.167c-3.714,0-7.398,0.935-10.655,2.704c-7.204,3.913-11.678,11.434-11.678,19.629v5.833
		h-5.166c-12.315,0-22.334,10.019-22.334,22.333c0,12.315,10.019,22.333,22.334,22.333h5.166v5.168
		c0,12.314,10.019,22.333,22.334,22.333c12.314,0,22.333-10.019,22.333-22.333v-5.168h19.834c4.292,0,8.306-1.217,11.713-3.324
		l8.744,17.163c0.438,0.981,0.949,1.935,1.526,2.847c4.031,6.629,11.305,10.729,19.084,10.729c3.323,0,6.667-0.764,9.669-2.208
		c5.448-2.619,10.18-7.04,12.597-12.706l6.352-14.186l7.912,15.529c0.436,0.976,0.943,1.924,1.518,2.832
		c4.03,6.635,11.306,10.738,19.088,10.738c3.323,0,6.666-0.764,9.669-2.207c5.106-2.454,9.075-6.8,11.118-12.019
		c3.336,8.143,11.349,13.893,20.678,13.893l56.167,0.016c12.314,0,22.333-9.614,22.333-21.929v-5.168h5.167
		c12.314,0,22.333-10.018,22.333-22.333c0-12.314-10.019-22.333-22.333-22.333H310.5v-5.833c0-8.195-4.475-15.716-11.678-19.629
		C295.564,1.326,291.881,0.391,288.167,0.391L288.167,0.391z"/>
</g>
</svg>
